<mxfile host="Electron" modified="2023-10-07T12:41:41.413Z" agent="Mozilla/5.0 (Macintosh; Intel Mac OS X 10_15_7) AppleWebKit/537.36 (KHTML, like Gecko) draw.io/21.6.5 Chrome/114.0.5735.243 Electron/25.3.1 Safari/537.36" etag="Jqm9WKOOF8TStar1wNnH" version="21.6.5" type="device" pages="2">
  <diagram name="wait-notifiy" id="wqMaQ0eLzMMyGrp9_gvs">
    <mxGraphModel dx="1434" dy="794" grid="1" gridSize="10" guides="1" tooltips="1" connect="1" arrows="1" fold="1" page="1" pageScale="1" pageWidth="827" pageHeight="1169" math="0" shadow="0">
      <root>
        <mxCell id="0" />
        <mxCell id="1" parent="0" />
        <mxCell id="grDOAF8KV7JYXBjTilOQ-2" value="Thread 0" style="swimlane;whiteSpace=wrap;html=1;" vertex="1" parent="1">
          <mxGeometry x="240" y="80" width="200" height="800" as="geometry" />
        </mxCell>
        <mxCell id="grDOAF8KV7JYXBjTilOQ-4" value="WORK" style="rounded=0;whiteSpace=wrap;html=1;" vertex="1" parent="grDOAF8KV7JYXBjTilOQ-2">
          <mxGeometry x="40" y="50" width="120" height="60" as="geometry" />
        </mxCell>
        <mxCell id="grDOAF8KV7JYXBjTilOQ-5" value="WAIT" style="shape=parallelogram;perimeter=parallelogramPerimeter;whiteSpace=wrap;html=1;fixedSize=1;" vertex="1" parent="grDOAF8KV7JYXBjTilOQ-2">
          <mxGeometry x="40" y="140" width="120" height="40" as="geometry" />
        </mxCell>
        <mxCell id="grDOAF8KV7JYXBjTilOQ-9" value="NOTIFY" style="shape=parallelogram;perimeter=parallelogramPerimeter;whiteSpace=wrap;html=1;fixedSize=1;" vertex="1" parent="grDOAF8KV7JYXBjTilOQ-2">
          <mxGeometry x="40" y="390" width="120" height="40" as="geometry" />
        </mxCell>
        <mxCell id="grDOAF8KV7JYXBjTilOQ-10" value="WORK" style="rounded=0;whiteSpace=wrap;html=1;" vertex="1" parent="grDOAF8KV7JYXBjTilOQ-2">
          <mxGeometry x="40" y="460" width="120" height="60" as="geometry" />
        </mxCell>
        <mxCell id="grDOAF8KV7JYXBjTilOQ-11" value="LOCK" style="rounded=0;whiteSpace=wrap;html=1;fillColor=#dae8fc;strokeColor=#6c8ebf;" vertex="1" parent="grDOAF8KV7JYXBjTilOQ-2">
          <mxGeometry x="140" y="50" width="50" height="20" as="geometry" />
        </mxCell>
        <mxCell id="grDOAF8KV7JYXBjTilOQ-13" value="LOCK" style="rounded=0;whiteSpace=wrap;html=1;fillColor=#dae8fc;strokeColor=#6c8ebf;" vertex="1" parent="grDOAF8KV7JYXBjTilOQ-2">
          <mxGeometry x="124" y="370" width="50" height="20" as="geometry" />
        </mxCell>
        <mxCell id="grDOAF8KV7JYXBjTilOQ-14" value="LOCK" style="rounded=0;whiteSpace=wrap;html=1;fillColor=#dae8fc;strokeColor=#6c8ebf;" vertex="1" parent="grDOAF8KV7JYXBjTilOQ-2">
          <mxGeometry x="140" y="160" width="50" height="20" as="geometry" />
        </mxCell>
        <mxCell id="grDOAF8KV7JYXBjTilOQ-18" value="LOCK" style="rounded=0;whiteSpace=wrap;html=1;fillColor=#dae8fc;strokeColor=#6c8ebf;" vertex="1" parent="grDOAF8KV7JYXBjTilOQ-2">
          <mxGeometry x="124" y="460" width="50" height="20" as="geometry" />
        </mxCell>
        <mxCell id="grDOAF8KV7JYXBjTilOQ-19" value="WAIT" style="shape=parallelogram;perimeter=parallelogramPerimeter;whiteSpace=wrap;html=1;fixedSize=1;" vertex="1" parent="grDOAF8KV7JYXBjTilOQ-2">
          <mxGeometry x="40" y="560" width="120" height="40" as="geometry" />
        </mxCell>
        <mxCell id="grDOAF8KV7JYXBjTilOQ-20" value="LOCK" style="rounded=0;whiteSpace=wrap;html=1;fillColor=#dae8fc;strokeColor=#6c8ebf;" vertex="1" parent="grDOAF8KV7JYXBjTilOQ-2">
          <mxGeometry x="124" y="540" width="50" height="20" as="geometry" />
        </mxCell>
        <mxCell id="grDOAF8KV7JYXBjTilOQ-3" value="Thread 1" style="swimlane;whiteSpace=wrap;html=1;" vertex="1" parent="1">
          <mxGeometry x="480" y="80" width="200" height="800" as="geometry" />
        </mxCell>
        <mxCell id="grDOAF8KV7JYXBjTilOQ-6" value="WORK" style="rounded=0;whiteSpace=wrap;html=1;" vertex="1" parent="grDOAF8KV7JYXBjTilOQ-3">
          <mxGeometry x="50" y="180" width="120" height="60" as="geometry" />
        </mxCell>
        <mxCell id="grDOAF8KV7JYXBjTilOQ-7" value="NOTIFY" style="shape=parallelogram;perimeter=parallelogramPerimeter;whiteSpace=wrap;html=1;fixedSize=1;" vertex="1" parent="grDOAF8KV7JYXBjTilOQ-3">
          <mxGeometry x="50" y="270" width="120" height="40" as="geometry" />
        </mxCell>
        <mxCell id="grDOAF8KV7JYXBjTilOQ-8" value="WAIT" style="shape=parallelogram;perimeter=parallelogramPerimeter;whiteSpace=wrap;html=1;fixedSize=1;" vertex="1" parent="grDOAF8KV7JYXBjTilOQ-3">
          <mxGeometry x="50" y="330" width="120" height="40" as="geometry" />
        </mxCell>
        <mxCell id="grDOAF8KV7JYXBjTilOQ-12" value="LOCK" style="rounded=0;whiteSpace=wrap;html=1;fillColor=#dae8fc;strokeColor=#6c8ebf;" vertex="1" parent="grDOAF8KV7JYXBjTilOQ-3">
          <mxGeometry x="10" y="180" width="50" height="20" as="geometry" />
        </mxCell>
        <mxCell id="grDOAF8KV7JYXBjTilOQ-15" value="LOCK" style="rounded=0;whiteSpace=wrap;html=1;fillColor=#dae8fc;strokeColor=#6c8ebf;" vertex="1" parent="grDOAF8KV7JYXBjTilOQ-3">
          <mxGeometry x="10" y="270" width="50" height="20" as="geometry" />
        </mxCell>
        <mxCell id="grDOAF8KV7JYXBjTilOQ-17" value="LOCK" style="rounded=0;whiteSpace=wrap;html=1;fillColor=#dae8fc;strokeColor=#6c8ebf;" vertex="1" parent="grDOAF8KV7JYXBjTilOQ-3">
          <mxGeometry x="10" y="350" width="50" height="20" as="geometry" />
        </mxCell>
        <mxCell id="grDOAF8KV7JYXBjTilOQ-21" value="WORK" style="rounded=0;whiteSpace=wrap;html=1;" vertex="1" parent="grDOAF8KV7JYXBjTilOQ-3">
          <mxGeometry x="60" y="600" width="120" height="60" as="geometry" />
        </mxCell>
        <mxCell id="grDOAF8KV7JYXBjTilOQ-22" value="NOTIFY" style="shape=parallelogram;perimeter=parallelogramPerimeter;whiteSpace=wrap;html=1;fixedSize=1;" vertex="1" parent="grDOAF8KV7JYXBjTilOQ-3">
          <mxGeometry x="60" y="690" width="120" height="40" as="geometry" />
        </mxCell>
        <mxCell id="grDOAF8KV7JYXBjTilOQ-23" value="WAIT" style="shape=parallelogram;perimeter=parallelogramPerimeter;whiteSpace=wrap;html=1;fixedSize=1;" vertex="1" parent="grDOAF8KV7JYXBjTilOQ-3">
          <mxGeometry x="60" y="750" width="120" height="40" as="geometry" />
        </mxCell>
        <mxCell id="grDOAF8KV7JYXBjTilOQ-24" value="LOCK" style="rounded=0;whiteSpace=wrap;html=1;fillColor=#dae8fc;strokeColor=#6c8ebf;" vertex="1" parent="grDOAF8KV7JYXBjTilOQ-3">
          <mxGeometry x="20" y="600" width="50" height="20" as="geometry" />
        </mxCell>
        <mxCell id="grDOAF8KV7JYXBjTilOQ-25" value="LOCK" style="rounded=0;whiteSpace=wrap;html=1;fillColor=#dae8fc;strokeColor=#6c8ebf;" vertex="1" parent="grDOAF8KV7JYXBjTilOQ-3">
          <mxGeometry x="20" y="690" width="50" height="20" as="geometry" />
        </mxCell>
        <mxCell id="grDOAF8KV7JYXBjTilOQ-26" value="LOCK" style="rounded=0;whiteSpace=wrap;html=1;fillColor=#dae8fc;strokeColor=#6c8ebf;" vertex="1" parent="grDOAF8KV7JYXBjTilOQ-3">
          <mxGeometry x="20" y="770" width="50" height="20" as="geometry" />
        </mxCell>
        <mxCell id="grDOAF8KV7JYXBjTilOQ-28" value="Nofity: does not have immediate effect: it allows the flow continue. Allows another thread to take the lock when wait gives it up" style="text;html=1;strokeColor=none;fillColor=none;align=center;verticalAlign=middle;whiteSpace=wrap;rounded=0;" vertex="1" parent="1">
          <mxGeometry x="690" y="350" width="230" height="70" as="geometry" />
        </mxCell>
        <mxCell id="grDOAF8KV7JYXBjTilOQ-27" value="Wait: immediate effect -&amp;gt; gives up the lock" style="text;html=1;strokeColor=none;fillColor=none;align=center;verticalAlign=middle;whiteSpace=wrap;rounded=0;" vertex="1" parent="1">
          <mxGeometry x="90" y="225" width="190" height="30" as="geometry" />
        </mxCell>
      </root>
    </mxGraphModel>
  </diagram>
  <diagram name="semaphore" id="JxjqGj-_ZfX-emCSLbt2">
    <mxGraphModel dx="1434" dy="1963" grid="1" gridSize="10" guides="1" tooltips="1" connect="1" arrows="1" fold="1" page="1" pageScale="1" pageWidth="827" pageHeight="1169" math="0" shadow="0">
      <root>
        <mxCell id="27_Zp2JHQX0e2MuQreRV-0" />
        <mxCell id="27_Zp2JHQX0e2MuQreRV-1" parent="27_Zp2JHQX0e2MuQreRV-0" />
        <mxCell id="27_Zp2JHQX0e2MuQreRV-2" value="Thread 0" style="swimlane;whiteSpace=wrap;html=1;" vertex="1" parent="27_Zp2JHQX0e2MuQreRV-1">
          <mxGeometry x="240" y="80" width="200" height="840" as="geometry" />
        </mxCell>
        <mxCell id="27_Zp2JHQX0e2MuQreRV-3" value="WORK" style="rounded=0;whiteSpace=wrap;html=1;" vertex="1" parent="27_Zp2JHQX0e2MuQreRV-2">
          <mxGeometry x="50" y="110" width="120" height="60" as="geometry" />
        </mxCell>
        <mxCell id="27_Zp2JHQX0e2MuQreRV-4" value="ACQUIRE SEM 1" style="shape=parallelogram;perimeter=parallelogramPerimeter;whiteSpace=wrap;html=1;fixedSize=1;fillColor=#dae8fc;strokeColor=#6c8ebf;" vertex="1" parent="27_Zp2JHQX0e2MuQreRV-2">
          <mxGeometry x="50" y="40" width="120" height="40" as="geometry" />
        </mxCell>
        <mxCell id="27_Zp2JHQX0e2MuQreRV-6" value="WORK" style="rounded=0;whiteSpace=wrap;html=1;" vertex="1" parent="27_Zp2JHQX0e2MuQreRV-2">
          <mxGeometry x="40" y="510" width="120" height="60" as="geometry" />
        </mxCell>
        <mxCell id="PaL2rruzDzvXtrgtym0Q-1" value="RELEASE SEM 2" style="shape=parallelogram;perimeter=parallelogramPerimeter;whiteSpace=wrap;html=1;fixedSize=1;fillColor=#d5e8d4;strokeColor=#82b366;" vertex="1" parent="27_Zp2JHQX0e2MuQreRV-2">
          <mxGeometry x="40" y="190" width="120" height="40" as="geometry" />
        </mxCell>
        <mxCell id="PaL2rruzDzvXtrgtym0Q-6" value="ACQUIRE SEM 1" style="shape=parallelogram;perimeter=parallelogramPerimeter;whiteSpace=wrap;html=1;fixedSize=1;fillColor=#dae8fc;strokeColor=#6c8ebf;" vertex="1" parent="27_Zp2JHQX0e2MuQreRV-2">
          <mxGeometry x="40" y="460" width="120" height="40" as="geometry" />
        </mxCell>
        <mxCell id="PaL2rruzDzvXtrgtym0Q-7" value="RELEASE SEM 2" style="shape=parallelogram;perimeter=parallelogramPerimeter;whiteSpace=wrap;html=1;fixedSize=1;fillColor=#d5e8d4;strokeColor=#82b366;" vertex="1" parent="27_Zp2JHQX0e2MuQreRV-2">
          <mxGeometry x="40" y="600" width="120" height="40" as="geometry" />
        </mxCell>
        <mxCell id="27_Zp2JHQX0e2MuQreRV-13" value="Thread 1" style="swimlane;whiteSpace=wrap;html=1;" vertex="1" parent="27_Zp2JHQX0e2MuQreRV-1">
          <mxGeometry x="480" y="80" width="200" height="840" as="geometry" />
        </mxCell>
        <mxCell id="27_Zp2JHQX0e2MuQreRV-14" value="WORK" style="rounded=0;whiteSpace=wrap;html=1;" vertex="1" parent="27_Zp2JHQX0e2MuQreRV-13">
          <mxGeometry x="50" y="320" width="120" height="60" as="geometry" />
        </mxCell>
        <mxCell id="27_Zp2JHQX0e2MuQreRV-20" value="WORK" style="rounded=0;whiteSpace=wrap;html=1;" vertex="1" parent="27_Zp2JHQX0e2MuQreRV-13">
          <mxGeometry x="40" y="700" width="120" height="60" as="geometry" />
        </mxCell>
        <mxCell id="PaL2rruzDzvXtrgtym0Q-4" value="ACQUIRE SEM 2" style="shape=parallelogram;perimeter=parallelogramPerimeter;whiteSpace=wrap;html=1;fixedSize=1;fillColor=#d5e8d4;strokeColor=#82b366;" vertex="1" parent="27_Zp2JHQX0e2MuQreRV-13">
          <mxGeometry x="50" y="250" width="120" height="40" as="geometry" />
        </mxCell>
        <mxCell id="PaL2rruzDzvXtrgtym0Q-5" value="RELEASE SEM 1" style="shape=parallelogram;perimeter=parallelogramPerimeter;whiteSpace=wrap;html=1;fixedSize=1;fillColor=#dae8fc;strokeColor=#6c8ebf;" vertex="1" parent="27_Zp2JHQX0e2MuQreRV-13">
          <mxGeometry x="40" y="420" width="120" height="40" as="geometry" />
        </mxCell>
        <mxCell id="PaL2rruzDzvXtrgtym0Q-8" value="ACQUIRE SEM 2" style="shape=parallelogram;perimeter=parallelogramPerimeter;whiteSpace=wrap;html=1;fixedSize=1;fillColor=#d5e8d4;strokeColor=#82b366;" vertex="1" parent="27_Zp2JHQX0e2MuQreRV-13">
          <mxGeometry x="40" y="640" width="120" height="40" as="geometry" />
        </mxCell>
        <mxCell id="PaL2rruzDzvXtrgtym0Q-9" value="RELEASE SEM 1" style="shape=parallelogram;perimeter=parallelogramPerimeter;whiteSpace=wrap;html=1;fixedSize=1;fillColor=#dae8fc;strokeColor=#6c8ebf;" vertex="1" parent="27_Zp2JHQX0e2MuQreRV-13">
          <mxGeometry x="40" y="780" width="120" height="40" as="geometry" />
        </mxCell>
        <mxCell id="PaL2rruzDzvXtrgtym0Q-2" value="SEM A: 1 PERMIT" style="rounded=0;whiteSpace=wrap;html=1;fillColor=#dae8fc;strokeColor=#6c8ebf;" vertex="1" parent="27_Zp2JHQX0e2MuQreRV-1">
          <mxGeometry x="240" y="-10" width="200" height="60" as="geometry" />
        </mxCell>
        <mxCell id="PaL2rruzDzvXtrgtym0Q-3" value="SEM B: 0 PERMIT" style="rounded=0;whiteSpace=wrap;html=1;fillColor=#d5e8d4;strokeColor=#82b366;" vertex="1" parent="27_Zp2JHQX0e2MuQreRV-1">
          <mxGeometry x="480" y="-10" width="200" height="60" as="geometry" />
        </mxCell>
      </root>
    </mxGraphModel>
  </diagram>
</mxfile>
